<svg xmlns="http://www.w3.org/2000/svg" xmlns:xlink="http://www.w3.org/1999/xlink" width="512" height="512" preserveAspectRatio="xMidYMid"><defs><linearGradient id="b" x1="39.255" x2="39.255" y1="79.948" y2="1.443" gradientTransform="scale(.70267 1.42314)" gradientUnits="userSpaceOnUse"><stop offset="0%" stop-color="#D22929"/><stop offset="100%" stop-color="#B71717"/></linearGradient><linearGradient id="a" x1=".5" x2=".5" y1="0" y2="1"><stop offset="0%" stop-color="#E7762E"/><stop offset="100%" stop-color="#E7562E"/></linearGradient><linearGradient xlink:href="#a" id="c" x1="45.282" x2="45.282" y1="0" y2="90.565" gradientTransform="scale(1.06598 .9381)" gradientUnits="userSpaceOnUse"/></defs><path fill="url(#b)" d="M.025 75.93.002 5.16C0 2.31 1.963 1.226 4.375 2.733l50.79 31.744v79.3L7.584 84.9C.99 81.31.034 79.082.025 75.93Z" style="fill:url(#b)" transform="translate(38.784) scale(4.50003)"/><path fill="url(#a)" d="M5.176 0A5.174 5.174 0 0 0 0 5.184v70.668c.144 2.429.02 4.961 7.733 9.107 0 0-7.558-7.343 4.334-7.383H96.54V0Z" style="fill:url(#c)" transform="translate(38.784) scale(4.50003)"/></svg>