<svg preserveAspectRatio="xMidYMid" height="512" width="512" xmlns:xlink="http://www.w3.org/1999/xlink" xmlns="http://www.w3.org/2000/svg"><defs><linearGradient gradientUnits="userSpaceOnUse" gradientTransform="scale(.70267 1.42314)" id="b" y2="1.443" x2="39.255" y1="79.948" x1="39.255"><stop offset="0%" stop-color="#D22929"/><stop offset="100%" stop-color="#B71717"/></linearGradient><linearGradient id="a" y2="1" x2=".5" y1="0" x1=".5"><stop offset="0%" stop-color="#E7762E"/><stop offset="100%" stop-color="#E7562E"/></linearGradient><linearGradient gradientUnits="userSpaceOnUse" gradientTransform="scale(1.06598 .9381)" y2="90.565" x2="45.282" y1="0" x1="45.282" id="c" xlink:href="#a"/></defs><path style="fill:url(#b)" d="M.025 75.93.002 5.16C0 2.31 1.963 1.226 4.375 2.733l50.79 31.744v79.3L7.584 84.9C.99 81.31.034 79.082.025 75.93Z" fill="url(#b)" transform="matrix(3.37503 0 0 3.37503 93.088 64)"/><path style="fill:url(#c)" d="M5.176 0A5.174 5.174 0 0 0 0 5.184v70.668c.144 2.429.02 4.961 7.733 9.107 0 0-7.558-7.343 4.334-7.383H96.54V0Z" fill="url(#a)" transform="matrix(3.37503 0 0 3.37503 93.088 64)"/></svg>